<svg viewBox="0 0 123.5 52" xmlns="http://www.w3.org/2000/svg"><path class="st0" fill="#005daa" d="M0 11.3h7.9V42H0zM28.8 11.3v15.9l-2.1-3c-1.2-1.7-2.3-3.3-3.5-4.8-1.2-1.5-2.3-3-3.5-4.4-1.1-1.4-2.2-2.5-3.1-3.5l-.2-.2h-6.3V42h7.8V23.9c2 2.5 4 5.1 5.8 7.8 2.2 3.3 4.2 6.6 6.1 9.9l.2.3h6.6V11.3h-7.8zM54.1 35.5c-1.2 0-2.2-.2-3-.6-.9-.4-1.6-1-2.2-1.7-.6-.8-1.1-1.7-1.4-2.8-.3-1.1-.5-2.3-.5-3.7 0-1.4.2-2.6.5-3.7s.8-2 1.4-2.8c.6-.8 1.3-1.3 2.2-1.8.9-.4 1.9-.6 3-.6s2.1.2 3 .6c.9.4 1.6 1 2.2 1.7.6.8 1.1 1.7 1.4 2.8.3 1.1.5 2.3.5 3.7 0 1.4-.2 2.6-.5 3.7s-.8 2-1.4 2.8c-.6.8-1.3 1.3-2.2 1.7-.9.4-1.9.7-3 .7m15.2-8.9c0-2.6-.4-4.9-1.2-6.9-.8-2-1.9-3.7-3.3-5-1.4-1.4-3-2.4-4.9-3.1-1.9-.7-3.8-1-5.9-1-2 0-4 .3-5.8 1-1.8.7-3.5 1.7-4.9 3.1-1.4 1.4-2.5 3.1-3.4 5-.8 2-1.2 4.3-1.2 6.9 0 2.6.4 4.9 1.2 6.9.8 2 1.9 3.7 3.3 5 1.4 1.3 3 2.4 4.9 3 1.9.7 3.8 1 5.9 1 2.1 0 4.1-.3 6-1 1.9-.7 3.5-1.7 4.9-3.1 1.4-1.4 2.4-3 3.2-5 .9-1.9 1.2-4.2 1.2-6.8zM90.6 11.3l-.1.5c-.6 1.7-1.2 3.5-1.8 5.5-.7 2-1.4 3.9-2.1 5.9-.7 1.9-1.4 3.8-2 5.6-.4 1.2-.8 2.2-1.2 3.2-.4-.9-.8-2-1.2-3.2-.6-1.8-1.3-3.6-2-5.6-.7-1.9-1.4-3.9-2.1-5.9-.7-2-1.3-3.8-1.8-5.5l-.1-.5h-8.7l.3.9c.6 1.9 1.4 4 2.2 6.4.9 2.4 1.8 4.9 2.8 7.5 1 2.6 2.1 5.2 3.2 7.9s2.3 5.2 3.5 7.7l.2.4h7.1l.2-.4c1.2-2.5 2.3-5 3.5-7.7 1.1-2.7 2.2-5.3 3.2-7.9 1-2.6 2-5.1 2.8-7.5.9-2.4 1.6-4.5 2.3-6.4l.3-.9h-8.5zM105.5 20.6c0-.1 0-.1.1-.2 0 0 0 .1.1.1.3.7.6 1.6 1 2.5.4 1 .8 2 1.2 3.2.3.9.7 1.8 1 2.8h-6.5c.4-.9.7-1.9 1-2.7.4-1.2.9-2.2 1.2-3.2.3-.9.7-1.8.9-2.5m15.7 20.5c-1.1-3.2-2.2-6.1-3.2-8.8-1-2.7-2-5.2-2.9-7.6-1-2.4-1.9-4.6-2.8-6.8-.9-2.1-1.9-4.2-2.9-6.3l-.2-.4h-7.1l-.2.4c-1 2-2 4.1-2.9 6.3-.9 2.1-1.9 4.4-2.8 6.8-1 2.4-1.9 4.9-2.9 7.6-1 2.7-2 5.6-3.1 8.8l-.3.9h8.3l.1-.5c.3-1 .7-2 1-3.1.3-.9.6-1.9 1-2.8h10.5c.3.9.6 1.8 1 2.8.4 1.1.7 2.1 1 3.1l.1.5h8.5l-.2-.9z"/><path class="st1" d="M101.4 9c.7-1.9 1.4-3.9 2.1-5.9.4-1.1.7-2.1 1-3.1-.7.5-1.5 1-2.3 1.6-1.4 1.1-2.9 2.2-4.4 3.4-1.5 1.2-3 2.5-4.6 3.8-.9.8-1.9 1.6-2.7 2.4l-.1.5c-.6 1.7-1.2 3.5-1.8 5.5-.7 2-1.4 3.9-2.1 5.9-.3.8-.5 1.5-.8 2.2v.1s5.2-5.8 8.1-8.4c2.2-2 4.5-3.9 6.8-5.7v-.1c.3-.7.5-1.4.8-2.2" fill="#e71939"/><g><path class="st0" d="M116.5 14.8c0 1.9 1.6 3.5 3.5 3.5s3.5-1.6 3.5-3.5-1.6-3.5-3.5-3.5-3.5 1.6-3.5 3.5m.5 0c0-1.6 1.3-2.9 2.9-2.9 1.6 0 2.9 1.3 2.9 2.9 0 1.6-1.3 2.9-2.9 2.9-1.5 0-2.9-1.3-2.9-2.9" fill="#005daa"/><path class="st0" d="M119.2 15.4v1.3h-.7v-3.8h1.9c.8 0 1.2.3 1.2 1.1 0 .6 0 1-.7 1.1.5 0 .6.3.6.9v.7h-.7V16c0-.3-.1-.5-.5-.5h-1.1zm1-.6c.5 0 .7-.1.7-.7 0-.5-.1-.6-.6-.6h-1v1.3h.9z" fill="#005daa"/></g></svg>